<svg width="169" height="24" viewBox="0 0 169 24" fill="none" xmlns="http://www.w3.org/2000/svg">
<path d="M15.9334 13.7709C12.8984 15.1084 10.314 14.7193 8.25708 13.729C8.17547 8.36421 12.2134 6.03102 13.3836 5.18262C17.4917 7.44634 16.8561 11.0623 15.9334 13.7709Z" stroke="#EFFDF6" stroke-width="1.12904" stroke-linecap="round" stroke-linejoin="round"/>
<path d="M11.3831 17.7691C8.03674 19.575 5.85676 17.8963 4.04648 17.1595C2.5443 10.8214 3.35351 7.57744 10.2367 4.69385C12.3973 6.26704 13.9875 9.16152 13.9875 9.16152C15.5484 13.5131 13.4478 15.3968 11.3831 17.7691Z" stroke="#EFFDF6" stroke-width="1.12904" stroke-linecap="round" stroke-linejoin="round"/>
<path d="M5.86887 15.3227C5.72173 13.1645 5.09101 11.3857 6.39741 9.62793H11.731C12.0321 10.9756 12.3773 14.2422 10.115 16.1813C8.24081 16.4517 6.53089 15.897 5.86887 15.3227Z" stroke="#EFFDF6" stroke-width="1.12904" stroke-linecap="round" stroke-linejoin="round"/>
<path d="M8.70818 21.2624C4.94801 20.2132 2.36101 18.264 1.94553 17.9608C-2.0183 7.21945 7.41538 1.25439 12.9572 2.69445C14.5828 3.5813 18.2137 5.96017 18.2137 5.96017L19.5239 11.8376C16.0961 18.6398 11.1232 21.2167 8.70818 21.2624Z" stroke="#EFFDF6" stroke-width="1.12904" stroke-linecap="round" stroke-linejoin="round"/>
<path d="M32.9018 9.91096C32.8415 9.34621 32.5872 8.90657 32.1388 8.59185C31.6948 8.27717 31.1172 8.11983 30.4059 8.11983C29.9058 8.11983 29.477 8.19526 29.1192 8.34614C28.7614 8.49702 28.4876 8.70178 28.298 8.96039C28.1083 9.21911 28.0112 9.51438 28.007 9.84631C28.007 10.1222 28.0695 10.3614 28.1945 10.564C28.3238 10.7666 28.4984 10.9391 28.7182 11.0813C28.9381 11.2193 29.1817 11.3357 29.4489 11.4305C29.7162 11.5253 29.9856 11.6051 30.2572 11.6697L31.4987 11.9801C31.9987 12.0965 32.4794 12.2538 32.9406 12.4521C33.4062 12.6505 33.8222 12.9005 34.1886 13.2022C34.5593 13.5039 34.8524 13.8682 35.068 14.2949C35.2835 14.7218 35.3913 15.2218 35.3913 15.7951C35.3913 16.5711 35.193 17.2543 34.7964 17.8449C34.3998 18.4311 33.8265 18.8902 33.0764 19.2222C32.3307 19.5498 31.4276 19.7136 30.3671 19.7136C29.3369 19.7136 28.4423 19.5541 27.6837 19.2351C26.9293 18.9161 26.3387 18.4505 25.9119 17.8384C25.4895 17.2263 25.261 16.4805 25.2266 15.6011H27.5867C27.6212 16.0624 27.7634 16.446 28.0135 16.7521C28.2635 17.0582 28.5889 17.2867 28.9898 17.4375C29.395 17.5884 29.8477 17.6639 30.3477 17.6639C30.8693 17.6639 31.3263 17.5862 31.7185 17.431C32.1151 17.2716 32.4255 17.0517 32.6497 16.7715C32.8738 16.487 32.988 16.1551 32.9924 15.7757C32.988 15.4309 32.8867 15.1464 32.6885 14.9222C32.4901 14.6937 32.2121 14.504 31.8543 14.3532C31.5008 14.198 31.087 14.0601 30.6128 13.9394L29.1062 13.5514C28.0156 13.2712 27.1534 12.8466 26.5197 12.2775C25.8904 11.7042 25.5757 10.9434 25.5757 9.99501C25.5757 9.21475 25.787 8.53151 26.2093 7.94524C26.6362 7.35898 27.216 6.9042 27.9488 6.58089C28.6816 6.25327 29.5114 6.08947 30.4382 6.08947C31.3779 6.08947 32.2013 6.25327 32.9083 6.58089C33.6196 6.9042 34.1778 7.35467 34.583 7.93231C34.9882 8.50564 35.1973 9.16521 35.2102 9.91096H32.9018ZM41.8235 19.7071C40.8276 19.7071 39.9677 19.5002 39.2435 19.0864C38.5236 18.6682 37.9697 18.0777 37.5817 17.3147C37.1937 16.5473 36.9997 15.6442 36.9997 14.6053C36.9997 13.5837 37.1937 12.6871 37.5817 11.9155C37.9739 11.1395 38.5214 10.536 39.2241 10.1049C39.9268 9.6695 40.7522 9.45186 41.7006 9.45186C42.3127 9.45186 42.8904 9.55103 43.4335 9.74928C43.981 9.94325 44.4638 10.245 44.8819 10.6546C45.3044 11.0641 45.6363 11.5857 45.8778 12.2194C46.1191 12.8487 46.2398 13.5988 46.2398 14.4695V15.1873H38.099V13.6096H43.9961C43.9917 13.1612 43.8948 12.7625 43.7051 12.4134C43.5155 12.0598 43.2503 11.7818 42.9098 11.5792C42.5735 11.3766 42.1813 11.2753 41.7329 11.2753C41.2545 11.2753 40.8341 11.3917 40.4721 11.6245C40.1099 11.8529 39.8276 12.1547 39.625 12.5297C39.4267 12.9005 39.3254 13.3078 39.3211 13.7518V15.1291C39.3211 15.7068 39.4267 16.2025 39.6379 16.6163C39.8491 17.0258 40.1444 17.3405 40.5237 17.5603C40.9031 17.7759 41.3471 17.8837 41.8558 17.8837C42.1963 17.8837 42.5046 17.8362 42.7805 17.7414C43.0564 17.6423 43.2956 17.4979 43.4982 17.3082C43.7008 17.1185 43.8538 16.8836 43.9573 16.6034L46.1428 16.8491C46.0049 17.4267 45.742 17.9311 45.354 18.3622C44.9703 18.7889 44.4788 19.1209 43.8797 19.358C43.2805 19.5907 42.5951 19.7071 41.8235 19.7071ZM48.22 19.5132V9.58118H50.4574V11.2688H50.5737C50.7807 10.6998 51.1234 10.2558 51.6019 9.93684C52.0803 9.61347 52.6515 9.45186 53.3154 9.45186C53.9878 9.45186 54.5547 9.61569 55.016 9.94325C55.4815 10.2665 55.8091 10.7084 55.9988 11.2688H56.1023C56.3221 10.717 56.6929 10.2774 57.2144 9.94974C57.7403 9.61782 58.3633 9.45186 59.0831 9.45186C59.9971 9.45186 60.7428 9.74065 61.3205 10.3183C61.8981 10.896 62.1869 11.7387 62.1869 12.8466V19.5132H59.8397V13.2086C59.8397 12.5922 59.6759 12.1417 59.3483 11.8572C59.0207 11.5684 58.6198 11.424 58.1455 11.424C57.5809 11.424 57.139 11.6007 56.82 11.9542C56.5053 12.3034 56.348 12.7582 56.348 13.3186V19.5132H54.0526V13.1117C54.0526 12.5987 53.8974 12.1891 53.587 11.8831C53.2809 11.5771 52.88 11.424 52.3842 11.424C52.0481 11.424 51.7419 11.5103 51.466 11.6826C51.1902 11.8508 50.9703 12.0901 50.8066 12.4004C50.6427 12.7065 50.5608 13.0643 50.5608 13.4738V19.5132H48.22ZM64.5616 19.5132V9.58118H66.9023V19.5132H64.5616ZM65.7384 8.17155C65.3677 8.17155 65.0487 8.0487 64.7814 7.80299C64.5142 7.55296 64.3806 7.25336 64.3806 6.90419C64.3806 6.55071 64.5142 6.25111 64.7814 6.0054C65.0487 5.75538 65.3677 5.63037 65.7384 5.63037C66.1135 5.63037 66.4325 5.75538 66.6954 6.0054C66.9627 6.25111 67.0963 6.55071 67.0963 6.90419C67.0963 7.25336 66.9627 7.55296 66.6954 7.80299C66.4325 8.0487 66.1135 8.17155 65.7384 8.17155ZM71.6501 6.27052V19.5132H69.3094V6.27052H71.6501ZM76.9151 19.7136C76.2857 19.7136 75.7189 19.6015 75.2145 19.3774C74.7145 19.1489 74.3179 18.8127 74.0248 18.3686C73.7359 17.9246 73.5915 17.3771 73.5915 16.7263C73.5915 16.1659 73.695 15.7024 73.9019 15.3361C74.1088 14.9696 74.3911 14.6765 74.7489 14.4566C75.1067 14.2368 75.5098 14.0708 75.9582 13.9588C76.4108 13.8423 76.8785 13.7583 77.3613 13.7065C77.9433 13.6462 78.4153 13.5923 78.7774 13.5449C79.1395 13.4932 79.4024 13.4156 79.5661 13.3122C79.7346 13.2044 79.8185 13.0384 79.8185 12.8142V12.7754C79.8185 12.2883 79.6737 11.9111 79.3852 11.6439C79.0964 11.3766 78.6804 11.243 78.1372 11.243C77.5639 11.243 77.1091 11.368 76.7728 11.618C76.4409 11.8681 76.2168 12.1633 76.1004 12.5039L73.9149 12.1935C74.0872 11.59 74.3718 11.0856 74.7683 10.6804C75.165 10.2709 75.6499 9.96486 76.2233 9.76226C76.7966 9.5553 77.4303 9.45186 78.1243 9.45186C78.6028 9.45186 79.0791 9.50789 79.5534 9.61996C80.0275 9.73202 80.4604 9.91737 80.8529 10.1761C81.2455 10.4304 81.5597 10.7774 81.7971 11.2171C82.0385 11.6568 82.1588 12.2064 82.1588 12.866V19.5132H79.9088V18.1488H79.8312C79.6887 18.4246 79.4885 18.6833 79.23 18.9247C78.9757 19.1618 78.6545 19.3536 78.2666 19.5002C77.8829 19.6425 77.4324 19.7136 76.9151 19.7136ZM77.5229 17.9936C77.9928 17.9936 78.4002 17.9009 78.7451 17.7155C79.0899 17.5259 79.355 17.2758 79.5408 16.9655C79.7299 16.6551 79.8249 16.3167 79.8249 15.9503V14.7799C79.7513 14.8403 79.6262 14.8963 79.4497 14.948C79.2774 14.9998 79.0835 15.0451 78.8679 15.0838C78.6524 15.1226 78.4389 15.1571 78.2278 15.1873C78.0165 15.2175 77.8333 15.2433 77.6781 15.2649C77.329 15.3123 77.0164 15.3899 76.7405 15.4977C76.4647 15.6055 76.2469 15.7563 76.0875 15.9503C75.928 16.14 75.8482 16.3857 75.8482 16.6874C75.8482 17.1185 76.0056 17.444 76.3202 17.6639C76.6349 17.8837 77.0358 17.9936 77.5229 17.9936ZM89.4723 9.58118V11.3917H83.763V9.58118H89.4723ZM85.1725 7.20164H87.5127V16.5258C87.5127 16.8405 87.5602 17.0818 87.6552 17.25C87.7549 17.4138 87.8839 17.5259 88.043 17.5862C88.2028 17.6466 88.3793 17.6768 88.5732 17.6768C88.7204 17.6768 88.8534 17.666 88.9745 17.6445C89.0995 17.6229 89.1945 17.6035 89.2586 17.5862L89.6535 19.4161C89.5285 19.4593 89.3496 19.5067 89.1169 19.5584C88.8882 19.6101 88.608 19.6403 88.2764 19.6489C87.69 19.6661 87.1621 19.5778 86.692 19.3838C86.2219 19.1855 85.8491 18.8795 85.5729 18.4656C85.3015 18.0518 85.1677 17.5345 85.1725 16.9138V7.20164ZM96.3893 9.58118V11.3917H90.68V9.58118H96.3893ZM92.0895 7.20164H94.4305V16.5258C94.4305 16.8405 94.478 17.0818 94.5722 17.25C94.6719 17.4138 94.8009 17.5259 94.9607 17.5862C95.1198 17.6466 95.2963 17.6768 95.491 17.6768C95.6374 17.6768 95.7712 17.666 95.8915 17.6445C96.0165 17.6229 96.1115 17.6035 96.1764 17.5862L96.5705 19.4161C96.4454 19.4593 96.2666 19.5067 96.0339 19.5584C95.8052 19.6101 95.525 19.6403 95.1934 19.6489C94.607 19.6661 94.0791 19.5778 93.609 19.3838C93.1389 19.1855 92.7661 18.8795 92.4907 18.4656C92.2185 18.0518 92.0855 17.5345 92.0895 16.9138V7.20164ZM98.3472 19.5132V9.58118H100.687V19.5132H98.3472ZM99.5241 8.17155C99.1529 8.17155 98.834 8.0487 98.5672 7.80299C98.2997 7.55296 98.166 7.25336 98.166 6.90419C98.166 6.55071 98.2997 6.25111 98.5672 6.0054C98.834 5.75538 99.1529 5.63037 99.5241 5.63037C99.8992 5.63037 100.218 5.75538 100.481 6.0054C100.748 6.25111 100.882 6.55071 100.882 6.90419C100.882 7.25336 100.748 7.55296 100.481 7.80299C100.218 8.0487 99.8992 8.17155 99.5241 8.17155ZM107.427 19.7071C106.436 19.7071 105.584 19.4894 104.873 19.0541C104.166 18.6186 103.62 18.0173 103.237 17.25C102.858 16.4784 102.668 15.5903 102.668 14.586C102.668 13.5772 102.862 12.6871 103.25 11.9155C103.638 11.1395 104.186 10.536 104.892 10.1049C105.604 9.6695 106.444 9.45186 107.415 9.45186C108.22 9.45186 108.934 9.60057 109.555 9.89799C110.18 10.1911 110.678 10.6071 111.048 11.146C111.419 11.6805 111.63 12.3056 111.682 13.0212H109.444C109.354 12.5427 109.138 12.1439 108.798 11.8249C108.462 11.5016 108.011 11.3399 107.446 11.3399C106.968 11.3399 106.548 11.4693 106.185 11.7279C105.824 11.9823 105.541 12.3487 105.339 12.8272C105.14 13.3057 105.041 13.879 105.041 14.5472C105.041 15.2239 105.14 15.8059 105.339 16.293C105.537 16.7758 105.815 17.1487 106.173 17.4116C106.534 17.6703 106.959 17.7996 107.446 17.7996C107.791 17.7996 108.1 17.7349 108.371 17.6056C108.647 17.472 108.878 17.2802 109.063 17.0302C109.248 16.7802 109.376 16.4762 109.444 16.1185H111.682C111.626 16.8211 111.419 17.444 111.061 17.9872C110.704 18.5259 110.216 18.9484 109.6 19.2545C108.983 19.5562 108.259 19.7071 107.427 19.7071ZM118.001 19.7071C117.005 19.7071 116.145 19.5002 115.421 19.0864C114.701 18.6682 114.147 18.0777 113.759 17.3147C113.372 16.5473 113.177 15.6442 113.177 14.6053C113.177 13.5837 113.372 12.6871 113.759 11.9155C114.151 11.1395 114.699 10.536 115.402 10.1049C116.104 9.6695 116.93 9.45186 117.878 9.45186C118.49 9.45186 119.068 9.55103 119.611 9.74928C120.159 9.94325 120.641 10.245 121.059 10.6546C121.482 11.0641 121.814 11.5857 122.055 12.2194C122.296 12.8487 122.417 13.5988 122.417 14.4695V15.1873H114.276V13.6096H120.174C120.169 13.1612 120.072 12.7625 119.883 12.4134C119.693 12.0598 119.427 11.7818 119.087 11.5792C118.751 11.3766 118.359 11.2753 117.91 11.2753C117.431 11.2753 117.011 11.3917 116.65 11.6245C116.287 11.8529 116.005 12.1547 115.803 12.5297C115.604 12.9005 115.503 13.3078 115.499 13.7518V15.1291C115.499 15.7068 115.604 16.2025 115.815 16.6163C116.027 17.0258 116.322 17.3405 116.701 17.5603C117.081 17.7759 117.525 17.8837 118.033 17.8837C118.374 17.8837 118.682 17.8362 118.958 17.7414C119.234 17.6423 119.473 17.4979 119.676 17.3082C119.879 17.1185 120.031 16.8836 120.135 16.6034L122.32 16.8491C122.182 17.4267 121.92 17.9311 121.531 18.3622C121.148 18.7889 120.657 19.1209 120.057 19.358C119.458 19.5907 118.772 19.7071 118.001 19.7071Z" fill="#EFFDF6"/>
<path d="M132.483 19.5H128.382V6.21185H132.665C133.954 6.21185 135.057 6.47788 135.974 7.00992C136.891 7.53764 137.594 8.29678 138.083 9.28733C138.571 10.2736 138.816 11.4544 138.816 12.83C138.816 14.2142 138.569 15.4058 138.076 16.4051C137.583 17.3999 136.865 18.1656 135.922 18.7019C134.979 19.234 133.833 19.5 132.483 19.5ZM129.992 18.0726H132.379C133.478 18.0726 134.389 17.8606 135.111 17.4367C135.833 17.0128 136.372 16.4094 136.726 15.6265C137.081 14.8435 137.259 13.9114 137.259 12.83C137.259 11.7572 137.083 10.8337 136.733 10.0594C136.383 9.28084 135.859 8.68392 135.163 8.26866C134.466 7.84908 133.599 7.63929 132.561 7.63929H129.992V18.0726ZM144.991 19.7076C144.091 19.7076 143.301 19.4935 142.622 19.0653C141.948 18.637 141.42 18.038 141.039 17.268C140.663 16.4981 140.475 15.5983 140.475 14.5689C140.475 13.5307 140.663 12.6245 141.039 11.8502C141.42 11.076 141.948 10.4747 142.622 10.0465C143.301 9.61824 144.091 9.40412 144.991 9.40412C145.89 9.40412 146.678 9.61824 147.352 10.0465C148.031 10.4747 148.559 11.076 148.935 11.8502C149.316 12.6245 149.506 13.5307 149.506 14.5689C149.506 15.5983 149.316 16.4981 148.935 17.268C148.559 18.038 148.031 18.637 147.352 19.0653C146.678 19.4935 145.89 19.7076 144.991 19.7076ZM144.991 18.3321C145.674 18.3321 146.236 18.1569 146.678 17.8065C147.119 17.4562 147.445 16.9955 147.657 16.4245C147.869 15.8535 147.975 15.235 147.975 14.5689C147.975 13.9027 147.869 13.282 147.657 12.7067C147.445 12.1314 147.119 11.6664 146.678 11.3117C146.236 10.957 145.674 10.7797 144.991 10.7797C144.307 10.7797 143.745 10.957 143.304 11.3117C142.862 11.6664 142.536 12.1314 142.324 12.7067C142.112 13.282 142.006 13.9027 142.006 14.5689C142.006 15.235 142.112 15.8535 142.324 16.4245C142.536 16.9955 142.862 17.4562 143.304 17.8065C143.745 18.1569 144.307 18.3321 144.991 18.3321ZM155.527 19.7076C154.593 19.7076 153.788 19.487 153.114 19.0458C152.439 18.6046 151.92 17.9969 151.556 17.2226C151.193 16.4483 151.011 15.5637 151.011 14.5689C151.011 13.5567 151.197 12.6634 151.569 11.8892C151.946 11.1106 152.469 10.5028 153.139 10.0659C153.814 9.62473 154.602 9.40412 155.501 9.40412C156.202 9.40412 156.834 9.53389 157.396 9.79342C157.958 10.053 158.419 10.4163 158.778 10.8835C159.137 11.3506 159.36 11.8956 159.446 12.5185H157.915C157.798 12.0643 157.539 11.6621 157.136 11.3117C156.738 10.957 156.202 10.7797 155.527 10.7797C154.93 10.7797 154.407 10.9354 153.957 11.2468C153.511 11.5539 153.163 11.9886 152.912 12.551C152.666 13.109 152.543 13.7643 152.543 14.5169C152.543 15.2869 152.664 15.9574 152.906 16.5283C153.152 17.0993 153.499 17.5427 153.944 17.8584C154.394 18.1742 154.922 18.3321 155.527 18.3321C155.925 18.3321 156.286 18.2629 156.611 18.1245C156.935 17.9861 157.21 17.7871 157.435 17.5275C157.66 17.268 157.82 16.9566 157.915 16.5932H159.446C159.36 17.1815 159.146 17.7114 158.804 18.1829C158.466 18.65 158.019 19.022 157.461 19.2989C156.907 19.5714 156.263 19.7076 155.527 19.7076ZM168.379 11.7659L167.003 12.1552C166.917 11.9259 166.789 11.7032 166.62 11.4869C166.456 11.2663 166.231 11.0846 165.945 10.9419C165.66 10.7991 165.294 10.7277 164.849 10.7277C164.239 10.7277 163.731 10.8683 163.324 11.1495C162.922 11.4263 162.721 11.7789 162.721 12.2071C162.721 12.5877 162.859 12.8884 163.136 13.109C163.413 13.3296 163.845 13.5134 164.434 13.6605L165.913 14.0238C166.804 14.2401 167.468 14.571 167.905 15.0165C168.342 15.4578 168.56 16.0266 168.56 16.723C168.56 17.294 168.396 17.8044 168.067 18.2542C167.743 18.7041 167.289 19.0588 166.705 19.3183C166.121 19.5779 165.441 19.7076 164.667 19.7076C163.651 19.7076 162.809 19.487 162.143 19.0458C161.477 18.6046 161.055 17.9601 160.878 17.1123L162.331 16.7489C162.47 17.2853 162.732 17.6876 163.116 17.9558C163.506 18.224 164.014 18.358 164.641 18.358C165.355 18.358 165.922 18.2067 166.341 17.9039C166.765 17.5967 166.977 17.2291 166.977 16.8008C166.977 16.4548 166.856 16.165 166.614 15.9314C166.371 15.6935 165.999 15.5162 165.498 15.3994L163.837 15.0101C162.924 14.7938 162.254 14.4585 161.825 14.0044C161.401 13.5459 161.189 12.9727 161.189 12.285C161.189 11.7226 161.347 11.2252 161.663 10.7926C161.983 10.3601 162.418 10.0205 162.967 9.77396C163.521 9.5274 164.148 9.40412 164.849 9.40412C165.835 9.40412 166.609 9.6204 167.172 10.053C167.738 10.4855 168.141 11.0565 168.379 11.7659Z" fill="#EFFDF6"/>
</svg>
